<?xml version="1.0" encoding="UTF-8"?>
<svg version="1.1" xmlns="http://www.w3.org/2000/svg" width="1200" height="474">
<path d="M0 0 C2.74218947 0.00315055 5.48328521 -0.02037171 8.2253418 -0.0456543 C25.31825086 -0.10796637 41.9262562 2.01907882 58.51245117 6.19067383 C59.5565918 6.44896973 60.60073242 6.70726562 61.67651367 6.97338867 C79.49707247 11.48110456 79.49707247 11.48110456 84.57495117 14.31567383 C86.67985635 19.01563988 84.03201947 23.36545225 82.35229492 27.8605957 C81.65813477 29.66367187 81.65813477 29.66367187 80.94995117 31.50317383 C80.51038086 32.71682617 80.07081055 33.93047852 79.61791992 35.1809082 C79.17834961 36.33268555 78.7387793 37.48446289 78.28588867 38.67114258 C77.8867627 39.72970459 77.48763672 40.7882666 77.07641602 41.87890625 C75.57495117 44.31567383 75.57495117 44.31567383 73.1496582 45.2355957 C70.61649833 45.31438163 69.03080045 45.09972038 66.66870117 44.24145508 C65.93643311 43.98783203 65.20416504 43.73420898 64.44970703 43.47290039 C63.6660376 43.19414063 62.88236816 42.91538086 62.07495117 42.62817383 C12.3423949 26.0938632 -42.3126605 32.39331579 -88.83911133 55.51538086 C-110.60947479 66.64754485 -131.77415857 82.49456059 -147.42504883 101.31567383 C-148.18430664 102.18708008 -148.94356445 103.05848633 -149.72583008 103.95629883 C-183.60873392 143.37218075 -200.79545226 196.50174642 -196.92504883 248.31176758 C-192.01382016 301.97986507 -167.21604886 351.47523873 -126.3059082 386.75512695 C-115.78218225 395.48665035 -104.44919036 402.96622093 -92.34448242 409.30249023 C-90.48626078 410.28336276 -88.65317575 411.3013986 -86.81958008 412.32739258 C-68.98471761 422.04749965 -48.46443211 428.22557095 -28.42504883 431.31567383 C-27.68480469 431.42991699 -26.94456055 431.54416016 -26.18188477 431.66186523 C1.22392767 435.65042138 29.94396686 433.99711375 56.57495117 426.31567383 C57.36369629 426.08928223 58.15244141 425.86289062 58.96508789 425.62963867 C89.93801876 416.50932958 117.21533443 400.48810526 140.57495117 378.31567383 C141.09524902 377.8279248 141.61554688 377.34017578 142.15161133 376.83764648 C155.42357613 364.32364218 166.66197136 350.26802178 175.57495117 334.31567383 C175.99486328 333.57397949 176.41477539 332.83228516 176.84741211 332.06811523 C202.48977527 286.37957534 210.01610404 231.94986922 196.01635742 181.18676758 C183.41851798 137.75530026 158.60507826 100.76084471 122.57495117 73.31567383 C120.90414096 71.98753649 119.23583687 70.65620143 117.57495117 69.31567383 C118.13498093 65.44366306 119.20597121 62.96966729 121.44604492 59.77661133 C122.02032227 58.9490332 122.59459961 58.12145508 123.1862793 57.26879883 C123.78891602 56.41801758 124.39155273 55.56723633 125.01245117 54.69067383 C125.91060547 53.40290039 125.91060547 53.40290039 126.8269043 52.08911133 C127.93759019 50.49708675 129.05172413 48.90745817 130.17041016 47.32104492 C131.32799017 45.66827902 132.45566203 43.99460754 133.57495117 42.31567383 C138.93429656 42.72793117 142.1114257 44.79155587 146.13745117 48.12817383 C146.74242432 48.61737305 147.34739746 49.10657227 147.97070312 49.6105957 C154.43112516 54.89922099 160.55944627 60.53028068 166.57495117 66.31567383 C167.06624512 66.78505371 167.55753906 67.25443359 168.0637207 67.73803711 C174.7876487 74.19074784 180.8817749 80.94064243 186.57495117 88.31567383 C187.20071045 89.11884033 187.20071045 89.11884033 187.83911133 89.93823242 C212.63730543 121.95813107 228.38066505 159.34150058 234.57495117 199.31567383 C234.70337402 200.11875977 234.83179688 200.9218457 234.96411133 201.74926758 C243.61255734 258.35727786 228.69029649 320.61016285 195.26245117 367.12817383 C193.72695941 369.21397508 192.15850321 371.26524697 190.57495117 373.31567383 C189.88916992 374.21157227 189.20338867 375.1074707 188.49682617 376.03051758 C184.45373492 381.19580542 180.15546231 386.09583801 175.73120117 390.93676758 C173.77879681 393.09077891 171.89217758 395.28595109 170.01245117 397.50317383 C166.50704443 401.51163439 162.64439855 404.89379345 158.57495117 408.31567383 C157.65069336 409.1277832 156.72643555 409.93989258 155.77416992 410.77661133 C141.904438 422.90184803 126.9436334 432.88637294 110.57495117 441.31567383 C109.76574219 441.7359082 108.9565332 442.15614258 108.12280273 442.58911133 C53.76324646 470.52006278 -10.61596164 474.82587387 -68.80004883 456.68676758 C-104.67297654 444.90537928 -135.16948243 425.20039813 -162.42504883 399.31567383 C-163.66641602 398.13811523 -163.66641602 398.13811523 -164.93286133 396.93676758 C-170.58122663 391.43600764 -175.56402173 385.51708885 -180.42504883 379.31567383 C-181.13274414 378.42493164 -181.84043945 377.53418945 -182.56958008 376.61645508 C-193.17326476 362.91764081 -202.26562122 348.08936619 -209.42504883 332.31567383 C-209.75988281 331.57881348 -210.0947168 330.84195312 -210.43969727 330.08276367 C-217.34436455 314.69475634 -222.51702322 299.09269759 -226.17504883 282.62817383 C-226.37380615 281.73904297 -226.57256348 280.84991211 -226.77734375 279.93383789 C-230.02170682 264.59786022 -230.83318896 249.56457451 -230.80004883 233.94067383 C-230.799505 232.97312164 -230.79896118 232.00556946 -230.79840088 231.00869751 C-230.75826395 215.43990386 -229.86756787 200.55288142 -226.42504883 185.31567383 C-226.21074219 184.33985352 -225.99643555 183.3640332 -225.77563477 182.35864258 C-216.85604706 142.73334175 -197.81626194 105.49560442 -169.87817383 75.92114258 C-167.79477728 73.70836312 -165.81757281 71.45319067 -163.86254883 69.12817383 C-124.42270194 23.93474928 -58.65662323 -0.14014059 0 0 Z " fill="#000000" transform="translate(230.425048828125,-0.315673828125)"/>
<path d="M0 0 C32.31039564 29.53167302 52.57587133 68.36233401 59.0300293 111.63769531 C59.12429199 112.2696582 59.21855469 112.90162109 59.31567383 113.55273438 C60.28636944 120.96752913 60.27361264 128.42055438 60.2800293 135.88769531 C60.28070404 136.59534027 60.28137878 137.30298523 60.28207397 138.03207397 C60.20632125 188.25613232 39.69525648 233.75047884 4.6550293 269.32519531 C-27.68944405 301.50637459 -73.73399463 320.81037672 -119.36230469 320.96704102 C-120.79403255 320.96319996 -122.22575658 320.95755129 -123.6574707 320.95019531 C-124.39909454 320.9483725 -125.14071838 320.94654968 -125.90481567 320.94467163 C-137.80483461 320.8956096 -149.32870023 320.23601051 -160.9699707 317.63769531 C-161.73696289 317.47140625 -162.50395508 317.30511719 -163.29418945 317.13378906 C-197.32081708 309.5410705 -226.43153548 293.08748528 -251.9699707 269.63769531 C-252.81043945 268.86941406 -253.6509082 268.10113281 -254.5168457 267.30957031 C-263.96239381 258.26596042 -271.63950824 247.41427192 -278.9699707 236.63769531 C-279.4030957 236.05375 -279.8362207 235.46980469 -280.2824707 234.86816406 C-282.67458459 231.58731341 -283.13760896 229.64089683 -282.9699707 225.63769531 C-279.45912416 223.64041572 -275.9347722 221.66824637 -272.4074707 219.70019531 C-271.41682617 219.13623047 -270.42618164 218.57226562 -269.40551758 217.99121094 C-264.19541245 215.1005546 -259.968217 212.89848863 -253.9699707 212.63769531 C-253.32672852 213.61867188 -252.68348633 214.59964844 -252.02075195 215.61035156 C-235.13553353 240.98254727 -214.03679055 261.17542877 -185.9699707 273.63769531 C-185.05465576 274.05075928 -185.05465576 274.05075928 -184.12084961 274.47216797 C-176.69287953 277.78035652 -169.18516411 280.28690245 -161.3449707 282.38769531 C-160.60593506 282.58645264 -159.86689941 282.78520996 -159.10546875 282.98999023 C-147.55174837 285.93169379 -136.18854485 287.00308735 -124.2824707 286.95019531 C-122.96537109 286.94528076 -121.64827148 286.94036621 -120.29125977 286.93530273 C-110.22624055 286.81471544 -100.74739545 285.99616244 -90.9699707 283.63769531 C-90.24487305 283.47140625 -89.51977539 283.30511719 -88.77270508 283.13378906 C-61.47148799 276.75168637 -38.25970955 262.73185163 -17.9699707 243.63769531 C-17.31899414 243.05117188 -16.66801758 242.46464844 -15.99731445 241.86035156 C8.46429569 218.90561678 24.80084542 181.99340525 26.15283203 148.60498047 C27.20913636 103.57238308 14.67356541 64.71396715 -16.16552734 31.44848633 C-42.57294019 3.93504737 -80.64246709 -12.25447583 -118.58325195 -13.56542969 C-160.20274492 -14.26092201 -199.03721734 0.55669096 -229.08691406 29.35180664 C-257.15688079 56.95178926 -273.49230796 94.63618649 -274.20336914 134.06982422 C-274.25864125 142.61911849 -273.666352 150.89880146 -272.4074707 159.35253906 C-272.2630957 160.43664062 -272.1187207 161.52074219 -271.9699707 162.63769531 C-271.8462207 163.54648437 -271.7224707 164.45527344 -271.5949707 165.39160156 C-271.9699707 167.63769531 -271.9699707 167.63769531 -273.8137207 169.28222656 C-278.25282421 171.18862374 -282.76846819 172.25490829 -287.4699707 173.32519531 C-288.87569336 173.66260742 -288.87569336 173.66260742 -290.30981445 174.00683594 C-294.63981361 175.01716907 -298.50334968 175.76348061 -302.9699707 175.63769531 C-305.14488662 169.75064639 -306.57266624 164.19687826 -307.1574707 157.95019531 C-307.23570068 157.13768311 -307.31393066 156.3251709 -307.39453125 155.48803711 C-311.81509123 104.7600625 -296.74111446 56.2044113 -264.12231445 17.16503906 C-263.41204102 16.33101562 -262.70176758 15.49699219 -261.9699707 14.63769531 C-261.29063477 13.83460937 -260.61129883 13.03152344 -259.91137695 12.20410156 C-255.59546879 7.21514729 -251.02966317 2.85852079 -245.9699707 -1.36230469 C-245.09727539 -2.12285156 -244.22458008 -2.88339844 -243.32543945 -3.66699219 C-176.8558137 -60.79349785 -76.2867616 -61.62882212 0 0 Z " fill="#000000" transform="translate(356.969970703125,96.3623046875)"/>
<path d="M0 0 C0.94101562 0.81210938 1.88203125 1.62421875 2.8515625 2.4609375 C3.81320312 3.27304688 4.77484375 4.08515625 5.765625 4.921875 C12.21956689 10.557962 17.65413045 16.66208266 22.8515625 23.4609375 C23.52960938 24.32332031 24.20765625 25.18570313 24.90625 26.07421875 C46.16119125 53.98683615 54.04085517 90.0066974 49.6484375 124.5234375 C47.92275801 136.13255405 44.76370967 147.7859361 39.8515625 158.4609375 C32.74293967 158.15186694 27.49947993 154.86280982 21.4140625 151.3984375 C20.39634766 150.83060547 19.37863281 150.26277344 18.33007812 149.67773438 C15.83156665 148.28185238 13.33917986 146.87611396 10.8515625 145.4609375 C11.3664531 139.60744434 12.34395151 134.13119204 13.8515625 128.4609375 C20.27957756 102.42545511 15.66652839 75.40037688 1.8515625 52.4609375 C-0.89565931 48.26151218 -3.97165366 44.34234632 -7.1484375 40.4609375 C-7.64859375 39.80867188 -8.14875 39.15640625 -8.6640625 38.484375 C-23.6078458 19.67582015 -48.8419964 8.68483266 -72.1484375 5.4609375 C-75.883268 5.18385833 -79.59177393 5.12603078 -83.3359375 5.1484375 C-84.8374939 5.15689697 -84.8374939 5.15689697 -86.36938477 5.16552734 C-111.22777157 5.56817301 -133.7127295 14.85450905 -152.1484375 31.4609375 C-152.92832031 32.15832031 -153.70820313 32.85570312 -154.51171875 33.57421875 C-168.158194 46.46648466 -177.71412026 64.30357533 -182.1484375 82.4609375 C-182.37273437 83.34007812 -182.59703125 84.21921875 -182.828125 85.125 C-188.46824643 111.9348923 -181.90379488 139.53500065 -167.50976562 162.43359375 C-152.86204552 184.24755856 -130.24093117 198.54325142 -104.7734375 204.2734375 C-99.24786675 205.33966568 -93.76850647 206.15193027 -88.1484375 206.4609375 C-87.46007812 206.5021875 -86.77171875 206.5434375 -86.0625 206.5859375 C-61.50865709 207.31616331 -36.32648997 197.93603708 -18.0703125 181.6015625 C-16.1484375 180.4609375 -16.1484375 180.4609375 -13.63671875 180.546875 C-10.73333824 181.61342294 -9.41822357 182.81514975 -7.3359375 185.0859375 C-4.63205697 187.94315719 -1.90018667 190.60505599 1.1015625 193.1484375 C4.06208894 195.68936177 6.54600949 198.29080212 8.8515625 201.4609375 C6.63160129 205.77072427 3.81184454 208.43015609 -0.0234375 211.2734375 C-0.59787598 211.70503174 -1.17231445 212.13662598 -1.76416016 212.58129883 C-31.82905771 234.82866711 -67.70915257 244.10795197 -104.77294922 238.83642578 C-139.20320013 233.39411068 -170.70051289 215.0410514 -191.62109375 186.98828125 C-213.3462253 157.0211728 -222.76753331 121.15925643 -217.32397461 84.31469727 C-216.73213278 80.98693024 -215.97101367 77.74129166 -215.1484375 74.4609375 C-214.98214844 73.77563965 -214.81585938 73.0903418 -214.64453125 72.38427734 C-208.67161088 48.25478514 -195.95618189 28.53833165 -179.1484375 10.4609375 C-178.59671875 9.85507813 -178.045 9.24921875 -177.4765625 8.625 C-132.23769605 -39.07736908 -49.91041601 -40.88269219 0 0 Z " fill="#000000" transform="translate(317.1484375,127.5390625)"/>
<path d="M0 0 C-3.54551119 8.92096363 -7.62084662 17.46885393 -12 26 C-13.8253125 25.38125 -13.8253125 25.38125 -15.6875 24.75 C-17.45764341 24.1645764 -19.22855862 23.58148422 -21 23 C-22.01320313 22.66355469 -23.02640625 22.32710938 -24.0703125 21.98046875 C-38.60366089 17.30528318 -55.10168941 13.61528725 -69.75 19.71875 C-73.7399653 21.99081357 -75.94668738 24.89337476 -78 29 C-78.36318782 33.35825385 -78.37574579 36.06063552 -76.75 40.125 C-68.86972276 48.36347166 -56.70332328 50.79002801 -46 53.5625 C-10.35012153 62.88882257 -10.35012153 62.88882257 0 78 C6.43997802 90.4474202 8.21426507 103.93332765 3.96484375 117.4453125 C-0.84728582 130.18674058 -9.29477893 137.87213229 -21.4921875 143.5625 C-26.24383933 145.5097248 -30.97006744 146.97829495 -36 148 C-36.85980469 148.18304688 -37.71960938 148.36609375 -38.60546875 148.5546875 C-53.30428041 150.48295508 -68.63140672 149.53474353 -83 146 C-84.04462402 145.75056641 -84.04462402 145.75056641 -85.11035156 145.49609375 C-96.19549386 142.77395785 -105.98649736 138.43128071 -116 133 C-114.43544883 127.06247972 -111.32446417 122.31122731 -108.0625 117.1875 C-107.52431641 116.31673828 -106.98613281 115.44597656 -106.43164062 114.54882812 C-105.64756836 113.30842773 -105.64756836 113.30842773 -104.84765625 112.04296875 C-104.37336182 111.29039795 -103.89906738 110.53782715 -103.41040039 109.76245117 C-102 108 -102 108 -99 107 C-96.62899711 107.9834611 -94.40514151 109.02475412 -92.125 110.1875 C-76.88828891 117.5836229 -59.11961658 122.90973601 -42.27734375 118.24609375 C-36.58256793 116.24159976 -33.15721504 114.19412796 -30 109 C-28.41944936 103.764426 -29.29393164 99.9637739 -30.91796875 94.91796875 C-32.29965857 92.46883625 -33.45552082 92.1559072 -36 91 C-36.81243164 90.62464111 -37.62486328 90.24928223 -38.46191406 89.86254883 C-46.03595891 86.57215265 -53.70456843 84.30848529 -61.66967773 82.23406982 C-77.08529016 78.18387591 -92.74966922 74.05820028 -104 62 C-104.7425 61.21625 -105.485 60.4325 -106.25 59.625 C-113.89643471 48.15534793 -114.75306947 34.73692803 -112.3515625 21.3984375 C-108.77984611 9.58429868 -100.17362034 0.12714172 -89.375 -5.6875 C-61.05135374 -18.8501761 -27.31353131 -12.93798851 0 0 Z " fill="#000000" transform="translate(660,263)"/>
<path d="M0 0 C11.50923892 10.69335019 16.89294729 24.04863195 17.51953125 39.6015625 C17.6923372 48.08641721 16.9740292 55.36032276 15.27734375 63.84375 C-10.13265625 63.84375 -35.54265625 63.84375 -61.72265625 63.84375 C-56.00277924 78.14029635 -56.00277924 78.14029635 -45.22265625 85.71875 C-34.13322699 89.32926185 -20.75201645 87.18394244 -10.41796875 82.2734375 C-8.3344609 81.19920684 -6.26596751 80.09499931 -4.21875 78.953125 C-1.72265625 77.84375 -1.72265625 77.84375 1.27734375 78.84375 C3.62553046 81.58552929 5.53400791 84.64994559 7.52734375 87.65625 C8.09453125 88.47673828 8.66171875 89.29722656 9.24609375 90.14257812 C10.04273438 91.33463867 10.04273438 91.33463867 10.85546875 92.55078125 C11.3443457 93.2775708 11.83322266 94.00436035 12.33691406 94.75317383 C13.27734375 96.84375 13.27734375 96.84375 13.04296875 99.01660156 C10.69594742 104.61772007 1.32998517 107.38078405 -3.91015625 109.53125 C-23.67629207 116.67286084 -45.20443523 117.731576 -64.8046875 109.55859375 C-78.50320545 102.68059663 -87.67464207 91.51449989 -92.94921875 77.24609375 C-98.87506838 58.84004566 -98.68030254 37.96382527 -90.09765625 20.46875 C-82.76934894 6.37101649 -71.88567409 -2.84893993 -56.94140625 -8.15625 C-38.02236063 -14.03401175 -15.93258257 -12.61805679 0 0 Z M-55.95703125 24.25390625 C-58.64728812 28.20001312 -61.72265625 33.90972845 -61.72265625 38.84375 C-46.21265625 38.84375 -30.70265625 38.84375 -14.72265625 38.84375 C-14.72265625 31.66122747 -15.39356676 24.82263503 -20.18359375 19.09765625 C-26.08517949 14.04985322 -30.87933848 13.38185275 -38.46875 13.54296875 C-46.3611403 14.27251743 -50.94470148 18.32396493 -55.95703125 24.25390625 Z " fill="#000000" transform="translate(956.72265625,297.15625)"/>
<path d="M0 0 C11.45017651 9.7803591 17.86848985 21.9835801 19.375 36.9921875 C19.85093162 46.71903988 19.00218339 55.22908715 17.375 64.9921875 C-8.035 64.9921875 -33.445 64.9921875 -59.625 64.9921875 C-54.58334561 78.35740937 -54.58334561 78.35740937 -44.1875 86.4296875 C-30.95275444 91.05387571 -17.76019747 87.50171831 -5.625 81.7421875 C-4.5525 81.20078125 -3.48 80.659375 -2.375 80.1015625 C0.375 78.9921875 0.375 78.9921875 3.375 79.9921875 C5.73566806 82.92286281 7.63444637 86.1767207 9.625 89.3671875 C10.1921875 90.24375 10.759375 91.1203125 11.34375 92.0234375 C12.14039063 93.28800781 12.14039063 93.28800781 12.953125 94.578125 C13.44200195 95.3520459 13.93087891 96.1259668 14.43457031 96.92333984 C15.375 98.9921875 15.375 98.9921875 14.375 101.9921875 C12.1197949 103.44302618 9.93668194 104.70551804 7.5625 105.9296875 C6.88541992 106.28305176 6.20833984 106.63641602 5.51074219 107.00048828 C-0.35491193 109.98846959 -6.25340744 112.30140177 -12.625 113.9921875 C-13.44484375 114.21648437 -14.2646875 114.44078125 -15.109375 114.671875 C-32.50032243 118.61454321 -52.65664985 117.01841131 -68.1015625 107.7421875 C-81.5985984 98.38201399 -89.6161262 85.77990116 -93.375 69.8046875 C-96.70994395 50.90667178 -95.07510089 30.54095096 -84 14.4296875 C-74.03611344 1.44366623 -61.4178205 -6.65527719 -45.19140625 -9.57421875 C-29.38274921 -11.49619129 -12.96097731 -9.91360467 0 0 Z M-52.625 23.9921875 C-56.64920833 29.43188771 -57.89269703 33.06297561 -59.625 39.9921875 C-44.115 39.9921875 -28.605 39.9921875 -12.625 39.9921875 C-12.625 32.56051505 -13.33712223 26.6527147 -17.875 20.6171875 C-22.84749955 15.87071065 -26.8574076 14.81647322 -33.5625 14.5546875 C-41.80573196 14.78137638 -47.30783895 17.66907706 -52.625 23.9921875 Z " fill="#000000" transform="translate(1022.625,103.0078125)"/>
<path d="M0 0 C10.59295602 8.94867628 15.91959508 20.36704085 17.9921875 34.0234375 C18.64954788 44.37686346 17.73576545 53.50589184 16.2421875 63.9609375 C-9.1678125 63.9609375 -34.5778125 63.9609375 -60.7578125 63.9609375 C-57.32673257 74.89725567 -57.32673257 74.89725567 -50.7578125 81.9609375 C-50.1390625 82.5178125 -49.5203125 83.0746875 -48.8828125 83.6484375 C-40.82249584 88.62686838 -29.97357514 87.97026395 -21.0234375 86.23828125 C-14.50787016 84.48135425 -8.5619898 82.16455813 -2.6484375 78.9140625 C-0.7578125 77.9609375 -0.7578125 77.9609375 1.2421875 77.9609375 C2.44726562 79.44213867 2.44726562 79.44213867 3.7734375 81.50390625 C4.49466797 82.62055664 4.49466797 82.62055664 5.23046875 83.75976562 C5.72933594 84.54802734 6.22820312 85.33628906 6.7421875 86.1484375 C7.24105469 86.91736328 7.73992187 87.68628906 8.25390625 88.47851562 C10.63817968 92.2019453 12.82205821 95.7428154 14.2421875 99.9609375 C-5.80568767 112.23949935 -27.81664639 118.90115289 -51.35620117 113.78100586 C-66.38860416 110.01611418 -78.41959784 102.29209507 -86.7578125 88.9609375 C-96.69712792 71.97890715 -98.65668082 50.24716109 -93.85546875 31.265625 C-88.78188743 15.9907147 -79.3327142 3.54696684 -65.23828125 -4.47265625 C-44.54027399 -14.68528941 -18.78812339 -13.891502 0 0 Z M-54.6953125 23.2734375 C-58.08689987 28.06485456 -60.7578125 32.96158523 -60.7578125 38.9609375 C-45.2478125 38.9609375 -29.7378125 38.9609375 -13.7578125 38.9609375 C-14.8309456 27.05911646 -14.8309456 27.05911646 -21.31640625 17.48046875 C-32.34643591 9.86122133 -46.55519988 13.43037245 -54.6953125 23.2734375 Z " fill="#000000" transform="translate(1080.7578125,297.0390625)"/>
<path d="M0 0 C13.07683777 13.55584282 12.05662509 32.27861081 11.953125 49.88671875 C11.94938649 51.77385812 11.94654349 53.66099946 11.94454956 55.54814148 C11.93697904 60.47176646 11.91738849 65.39527005 11.8951416 70.31884766 C11.87453996 75.36033487 11.86551748 80.40184204 11.85546875 85.44335938 C11.83413522 95.30344684 11.79900817 105.163413 11.7578125 115.0234375 C0.5378125 115.0234375 -10.6821875 115.0234375 -22.2421875 115.0234375 C-22.25677002 112.4548999 -22.27135254 109.8863623 -22.28637695 107.23999023 C-22.33677173 98.74223965 -22.40337554 90.24467137 -22.47790241 81.74709988 C-22.52258096 76.59630849 -22.56184273 71.44559574 -22.58862305 66.29467773 C-22.61468097 61.32136512 -22.65510124 56.34835551 -22.70537376 51.37523079 C-22.7220256 49.4803247 -22.73355034 47.58536621 -22.73980141 45.69039726 C-22.74946078 43.03082582 -22.77754185 40.37202667 -22.80981445 37.71264648 C-22.80837936 36.9336499 -22.80694427 36.15465332 -22.8054657 35.35205078 C-22.89346204 30.20596127 -23.83910673 26.5985841 -26.2421875 22.0234375 C-29.64637142 18.78531133 -32.39895734 17.74696989 -36.9921875 17.5234375 C-47.2961649 18.00305206 -54.16861355 22.94986355 -61.2421875 30.0234375 C-61.36728584 32.66995093 -61.42824745 35.29165969 -61.44750977 37.93969727 C-61.45740936 38.76889679 -61.46730896 39.59809631 -61.47750854 40.4524231 C-61.5092187 43.20653379 -61.53391838 45.96066176 -61.55859375 48.71484375 C-61.57915507 50.61914023 -61.60015132 52.52343205 -61.62156677 54.42771912 C-61.67687235 59.45006556 -61.72624406 64.47245377 -61.77441406 69.49487305 C-61.82456729 74.61576065 -61.88028553 79.7365873 -61.93554688 84.85742188 C-62.04323219 94.91271038 -62.14413999 104.9680504 -62.2421875 115.0234375 C-73.4621875 115.0234375 -84.6821875 115.0234375 -96.2421875 115.0234375 C-96.2421875 75.0934375 -96.2421875 35.1634375 -96.2421875 -5.9765625 C-85.6821875 -5.9765625 -75.1221875 -5.9765625 -64.2421875 -5.9765625 C-63.5821875 -2.0165625 -62.9221875 1.9434375 -62.2421875 6.0234375 C-60.8396875 4.8065625 -59.4371875 3.5896875 -57.9921875 2.3359375 C-42.15229308 -10.2690489 -16.19520494 -14.27660923 0 0 Z " fill="#000000" transform="translate(898.2421875,101.9765625)"/>
<path d="M0 0 C1.05469482 0.00563965 2.10938965 0.0112793 3.19604492 0.01708984 C15.84423466 0.21476368 27.32610103 2.62583546 37.1640625 11.12890625 C43.9758778 18.30305215 47.14834294 27.51184433 47.23608398 37.28686523 C47.24957382 38.49169052 47.26306366 39.69651581 47.27696228 40.93785095 C47.29261986 42.88480614 47.29261986 42.88480614 47.30859375 44.87109375 C47.32410553 46.22104181 47.3403158 47.57098201 47.35719299 48.9209137 C47.42777791 54.64485567 47.48806005 60.36887028 47.53930664 66.09301758 C47.57116808 69.59906177 47.61245699 73.10489373 47.65950203 76.61076546 C47.68321918 78.58983806 47.69624106 80.56902952 47.70909119 82.54820251 C47.72573318 83.75617996 47.74237518 84.96415741 47.75952148 86.20874023 C47.77498268 87.79947609 47.77498268 87.79947609 47.79075623 89.42234802 C48.08952124 92.59988645 48.38317244 94.58258793 50.0625 97.3125 C52.3725 98.3025 54.6825 99.2925 57.0625 100.3125 C57.0625 107.9025 57.0625 115.4925 57.0625 123.3125 C43.76601832 123.68184671 31.68830871 123.46117835 21.0625 114.3125 C20.4025 113.3225 19.7425 112.3325 19.0625 111.3125 C15.88416979 112.77830526 13.23906437 114.59773374 10.4375 116.6875 C-1.65888258 125.26396032 -15.48193763 127.06121457 -29.95703125 124.8515625 C-38.47450623 122.57129361 -45.7214727 117.80938989 -50.71875 110.5078125 C-55.53160637 101.8385007 -56.27118558 92.54547786 -53.6875 83.0625 C-50.17490311 72.57395133 -42.26699479 65.76724494 -32.9375 60.3125 C-18.39109332 53.64539694 -1.83782684 50.83127086 14.0625 50.3125 C13.97499445 48.08261716 13.86680939 45.85353995 13.75 43.625 C13.69199219 42.38363281 13.63398437 41.14226562 13.57421875 39.86328125 C12.90956814 35.25131635 11.52857797 32.51985833 7.9375 29.5625 C-2.24395713 25.13577951 -13.57805214 28.13344066 -23.5078125 32.0390625 C-26.4466475 33.24153998 -29.35338578 34.50622776 -32.2578125 35.7890625 C-35.27005497 37.03616925 -37.76819951 37.74735694 -40.9375 38.3125 C-42.77711674 34.52385025 -44.60812072 30.73110225 -46.4375 26.9375 C-46.96214844 25.85726562 -47.48679687 24.77703125 -48.02734375 23.6640625 C-48.77177734 22.1171875 -48.77177734 22.1171875 -49.53125 20.5390625 C-49.99208984 19.58596191 -50.45292969 18.63286133 -50.92773438 17.65087891 C-51.9375 15.3125 -51.9375 15.3125 -51.9375 13.3125 C-35.00513579 5.57447476 -18.8413612 -0.10572307 0 0 Z M-16.8125 78.875 C-20.74781496 83.38903775 -21.43930755 86.03643005 -21.3203125 91.8671875 C-21.08483481 94.59054394 -21.08483481 94.59054394 -18.75 97.3125 C-13.72388681 100.88662494 -10.1332182 101.82034575 -3.9375 101.3125 C2.778803 99.92814125 7.78608639 97.69080065 13.0625 93.3125 C14.31498502 90.80752996 14.17624406 89.10396726 14.16015625 86.3046875 C14.15693359 85.31855469 14.15371094 84.33242187 14.15039062 83.31640625 C14.14201172 82.28386719 14.13363281 81.25132812 14.125 80.1875 C14.12048828 79.14722656 14.11597656 78.10695313 14.11132812 77.03515625 C14.09951952 74.46088038 14.08305075 71.88671854 14.0625 69.3125 C3.17604467 69.15875954 -8.54227083 71.50370878 -16.8125 78.875 Z " fill="#000000" transform="translate(725.9375,93.6875)"/>
<path d="M0 0 C11.55 0 23.1 0 35 0 C35.04533874 13.82238799 35.0819666 27.64472589 35.10362434 41.46717167 C35.11402343 47.88675277 35.12811127 54.30627998 35.15087891 60.72583008 C35.17274619 66.93095358 35.18459771 73.13602553 35.18975449 79.34118462 C35.19342546 81.69842782 35.20059332 84.05566847 35.21146011 86.41288948 C35.40262667 129.63318075 35.40262667 129.63318075 21 145 C20.40445313 145.63679687 19.80890625 146.27359375 19.1953125 146.9296875 C8.24865173 157.51297364 -6.58922888 159.39323034 -21.11328125 159.29321289 C-39.15838681 158.96215363 -52.43034365 151.51927697 -65 139 C-64.59615237 134.57838619 -61.58565542 132.42682882 -58.4375 129.6875 C-57.89681885 129.20692139 -57.3561377 128.72634277 -56.79907227 128.23120117 C-55.71157802 127.26620963 -54.62103449 126.30464262 -53.52734375 125.34667969 C-52.17919952 124.15800265 -50.85338741 122.94410044 -49.53125 121.7265625 C-48.8403125 121.09492188 -48.149375 120.46328125 -47.4375 119.8125 C-46.83808594 119.26207031 -46.23867188 118.71164063 -45.62109375 118.14453125 C-44 117 -44 117 -41 117 C-40.4225 117.7425 -39.845 118.485 -39.25 119.25 C-35.07925551 124.3475766 -29.38650388 126.80929589 -23 128 C-16.68427895 128.09051193 -11.81661238 127.36855542 -7 123 C-2.93002195 117.61391492 -0.89549483 113.08820431 -0.84178162 106.30499268 C-0.8319928 105.36552292 -0.82220398 104.42605316 -0.81211853 103.45811462 C-0.80636307 102.43456375 -0.8006076 101.41101288 -0.79467773 100.35644531 C-0.78477814 99.27321487 -0.77487854 98.18998444 -0.76467896 97.07392883 C-0.73308125 93.49201649 -0.70831323 89.91009088 -0.68359375 86.328125 C-0.66302274 83.84519098 -0.64202623 81.36226046 -0.62062073 78.8793335 C-0.57105845 73.01106457 -0.52578916 67.1427748 -0.48259836 61.27445579 C-0.42833059 53.93684007 -0.3673998 46.59928336 -0.30664062 39.26171875 C-0.1990777 26.17451683 -0.09813248 13.08727603 0 0 Z " fill="#000000" transform="translate(615,60)"/>
<path d="M0 0 C11.22 0 22.44 0 34 0 C34 9.57 34 19.14 34 29 C42.58 29 51.16 29 60 29 C60 36.92 60 44.84 60 53 C51.42 53 42.84 53 34 53 C34.06296412 61.38883828 34.13841241 69.77728136 34.23571491 78.16578197 C34.28040223 82.0611024 34.31966173 85.95631864 34.34643555 89.85180664 C34.37248524 93.61268221 34.4128988 97.3731565 34.46318626 101.13378334 C34.47984384 102.56700961 34.49136505 104.00030528 34.49761391 105.43361473 C34.50726611 107.44438081 34.53703652 109.45501962 34.56762695 111.46557617 C34.58428154 113.18099861 34.58428154 113.18099861 34.60127258 114.93107605 C35.04757216 118.36615323 35.89329506 120.26701976 38 123 C44.08925379 125.02975126 49.05366148 123.89856496 54.88671875 121.75390625 C57 121 57 121 61 120 C64.96 126.27 68.92 132.54 73 139 C63.2329294 148.7670706 50.17603243 152.23465186 36.5625 152.4375 C26.25878773 152.35263915 16.23134857 150.53379986 8.6484375 143.046875 C-0.17157298 132.09501364 -0.29179541 119.42680897 -0.1953125 106.02734375 C-0.19157565 104.49321173 -0.18873186 102.95907729 -0.18673706 101.42494202 C-0.17915342 97.41530602 -0.15955115 93.40581825 -0.1373291 89.39624023 C-0.11675622 85.29347742 -0.10771103 81.19069032 -0.09765625 77.08789062 C-0.07629948 69.05851863 -0.04116126 61.02929491 0 53 C-6.27 53 -12.54 53 -19 53 C-19 45.08 -19 37.16 -19 29 C-12.73 29 -6.46 29 0 29 C0 19.43 0 9.86 0 0 Z " fill="#000000" transform="translate(1126,260)"/>
<path d="M0 0 C11.22 0 22.44 0 34 0 C34 9.57 34 19.14 34 29 C42.58 29 51.16 29 60 29 C60 36.92 60 44.84 60 53 C51.42 53 42.84 53 34 53 C34.08552036 61.40602529 34.17927991 69.81183502 34.28752708 78.21759415 C34.33746219 82.12077534 34.38379237 86.02392984 34.421875 89.92724609 C34.45876317 93.69452336 34.50513252 97.46157576 34.55806351 101.22866058 C34.57658873 102.66551517 34.59170363 104.10241793 34.60334396 105.53934479 C34.62023765 107.55269323 34.65040683 109.56591701 34.68115234 111.57910156 C34.69447601 112.72493713 34.70779968 113.87077271 34.7215271 115.05133057 C34.99343038 117.93043615 35.44621682 119.59122618 37 122 C39.93446608 124.2572816 43.07116235 124.39827847 46.7109375 124.34375 C50.32425116 123.80113635 53.43679986 122.27124083 56.703125 120.6796875 C59 120 59 120 60.98242188 120.71289062 C63.33237897 122.21204041 64.2095788 123.50109947 65.578125 125.9140625 C66.01640625 126.67460937 66.4546875 127.43515625 66.90625 128.21875 C67.3496875 129.0128125 67.793125 129.806875 68.25 130.625 C68.70890625 131.42679688 69.1678125 132.22859375 69.640625 133.0546875 C70.77007752 135.0312294 71.88933402 137.01285989 73 139 C64.9849306 147.74236273 53.439298 151.70210777 41.796875 152.21484375 C29.35675834 152.56886255 18.76763438 151.49522223 9 143 C-0.80057474 132.60026348 -0.44550082 117.42208633 -0.29296875 103.9765625 C-0.28735474 102.49441971 -0.28309321 101.01227126 -0.28010559 99.53012085 C-0.26879849 95.67993053 -0.23945839 91.83009444 -0.20599365 87.9800415 C-0.17498276 84.03101388 -0.16153486 80.08192749 -0.14648438 76.1328125 C-0.11457066 68.42169687 -0.06192381 60.71094373 0 53 C-6.27 53 -12.54 53 -19 53 C-19 45.08 -19 37.16 -19 29 C-12.73 29 -6.46 29 0 29 C0 19.43 0 9.86 0 0 Z " fill="#000000" transform="translate(691,260)"/>
<path d="M0 0 C1.91232422 -0.02126953 1.91232422 -0.02126953 3.86328125 -0.04296875 C7.85325384 0.19748925 10.91288569 0.9520829 14.6875 2.1875 C14.20279965 12.73391106 12.67975129 22.83781721 10.6875 33.1875 C9.4809375 33.01992188 8.274375 32.85234375 7.03125 32.6796875 C5.41676556 32.47318368 3.80217632 32.26749809 2.1875 32.0625 C1.39601563 31.95035156 0.60453125 31.83820313 -0.2109375 31.72265625 C-8.65735517 30.68416227 -15.10721111 32.34922147 -22.12890625 37.265625 C-26.47165804 41.08786808 -29.7324176 46.02733519 -32.3125 51.1875 C-32.43362098 53.46411645 -32.49002145 55.74425917 -32.51782227 58.02392578 C-32.52772186 58.72647491 -32.53762146 59.42902405 -32.54782104 60.15286255 C-32.5794568 62.47947803 -32.60420159 64.80611394 -32.62890625 67.1328125 C-32.64947399 68.74421729 -32.67047042 70.35561666 -32.69187927 71.9670105 C-32.74711854 76.21172706 -32.79651961 80.45649247 -32.84472656 84.70129395 C-32.9037518 89.79245862 -32.96998996 94.88353389 -33.03502655 99.97462463 C-33.13305942 107.71219523 -33.22189939 115.44982272 -33.3125 123.1875 C-44.2025 123.1875 -55.0925 123.1875 -66.3125 123.1875 C-66.3125 83.5875 -66.3125 43.9875 -66.3125 3.1875 C-56.0825 3.1875 -45.8525 3.1875 -35.3125 3.1875 C-34.8175 11.1075 -34.8175 11.1075 -34.3125 19.1875 C-31.64659056 16.52159056 -29.55924123 14.22624253 -27.3125 11.3125 C-20.29764649 3.17161795 -10.39353835 0.05222884 0 0 Z " fill="#000000" transform="translate(844.3125,285.8125)"/>
</svg>
